<?xml version="1.0" standalone="no"?>
<svg version="1.0" xmlns="http://www.w3.org/2000/svg" width="24.000000pt" height="24.000000pt"
    viewBox="0 0 24.000000 24.000000" preserveAspectRatio="xMidYMid meet">

    <g transform="translate(0.000000,24.000000) scale(0.100000,-0.100000)" fill="#000000"
        stroke="none">
        <path d="M50 106 c0 -24 3 -58 6 -75 6 -31 7 -31 70 -31 57 0 64 2 64 19 0 11
-4 23 -10 26 -5 3 -10 28 -10 56 l0 49 -60 0 -60 0 0 -44z m110 -15 c0 -28 5
-53 10 -56 24 -15 6 -25 -44 -25 -52 0 -54 1 -60 31 -3 17 -6 47 -6 65 l0 34
50 0 50 0 0 -49z" />
        <path d="M79 118 c-13 -41 5 -66 38 -54 15 6 15 8 3 17 -11 8 -12 12 -2 16 17
7 5 23 -19 23 -10 0 -19 -1 -20 -2z" />
    </g>
</svg>
